<svg xmlns="http://www.w3.org/2000/svg" viewBox="450 5 700 700"><path fill="#c0392f" d="m 794.664,653.79939 c -2.49681,-4.01466 -5.01763,-8.56618 -5.60183,-10.11449 C 788.47798,642.1366 788,637.7817 788,634.00734 v -6.86245 l -5.90486,3.04537 c -3.24767,1.67496 -6.32872,2.78342 -6.84677,2.46324 -0.51804,-0.32017 -1.21593,-5.08014 -1.55086,-10.57771 -0.44093,-7.23753 -0.20629,-11.54151 0.85036,-15.59825 0.93747,-3.59922 3.91336,-9.29243 8.32211,-15.92113 3.77454,-5.67516 7.17201,-11.96667 7.54992,-13.98115 0.37792,-2.01448 0.38482,-4.65552 0.0153,-5.86897 -0.36948,-1.21346 -1.36331,-2.99379 -2.2085,-3.95629 -0.84519,-0.9625 -2.86145,-1.75 -4.48059,-1.75 -1.61913,0 -4.36189,0.68433 -6.09501,1.52073 -1.73312,0.83639 -7.19893,5.15852 -12.14624,9.60472 -4.94731,4.4462 -10.76939,8.98916 -12.93795,10.09548 -2.74643,1.40112 -7.29948,2.28124 -15.00489,2.90048 -6.08413,0.48895 -12.63705,1.39912 -14.56205,2.0226 -1.925,0.62348 -4.71465,1.98551 -6.19922,3.02673 -1.48457,1.04122 -4.13847,4.11428 -5.89756,6.82901 -1.75909,2.71474 -3.58194,4.69881 -4.05078,4.40905 -0.46884,-0.28976 -0.84256,-2.63778 -0.83048,-5.21782 0.0121,-2.58004 0.9367,-6.71598 2.05472,-9.19098 1.11801,-2.475 3.69563,-6.22799 5.72803,-8.33998 2.03241,-2.11199 7.5374,-5.7811 12.23332,-8.15358 4.69591,-2.37247 12.60162,-5.88295 17.56823,-7.80106 4.96661,-1.91811 11.4745,-4.72379 14.46197,-6.23486 2.98747,-1.51106 7.90677,-4.44126 10.93177,-6.51155 3.025,-2.07029 7.16071,-5.49549 9.19046,-7.61156 2.02976,-2.11608 4.18584,-5.16309 4.7913,-6.77113 0.60546,-1.60805 0.82417,-4.18339 0.48602,-5.72297 -0.33815,-1.53959 -1.96626,-3.93641 -3.61802,-5.32628 -2.02753,-1.70605 -4.19658,-2.52386 -6.67649,-2.51726 -2.0203,0.005 -5.92327,1.06504 -8.67327,2.35481 -2.95263,1.38481 -9.50421,6.56305 -16,12.64609 -6.05,5.66558 -13.61756,12.00525 -16.8168,14.08816 -3.32847,2.16705 -8.03408,4.2139 -11,4.7848 -2.85076,0.54872 -11.0332,1.2996 -18.1832,1.66861 -9.24985,0.47738 -14.55973,1.25334 -18.40685,2.68988 -3.19974,1.1948 -7.0777,3.70506 -9.5,6.1495 -2.25123,2.2718 -5.41748,6.94661 -7.03611,10.38848 -1.61862,3.44186 -3.41221,6.10151 -3.98574,5.91033 -0.57353,-0.19117 -1.40174,-2.33723 -1.84047,-4.76901 -0.43873,-2.43178 -0.53616,-6.44642 -0.2165,-8.92142 0.31966,-2.475 1.92532,-7.28694 3.56814,-10.69321 2.05151,-4.25366 4.98987,-8.02853 9.38253,-12.0536 3.51757,-3.22322 9.01446,-7.15084 12.21529,-8.72805 3.20084,-1.57721 17.83592,-7.90263 32.52241,-14.0565 14.68648,-6.15386 30.09957,-13.13239 34.25132,-15.50784 4.15175,-2.37545 10.03994,-6.53946 13.08487,-9.25336 3.04493,-2.7139 6.41933,-6.66538 7.49867,-8.78107 1.07934,-2.11568 1.96244,-4.52379 1.96244,-5.35135 0,-0.82756 -0.87042,-1.97049 -1.93426,-2.53984 C 773.0019,485.46583 766.23745,485 759.03362,485 c -9.49796,0 -14.10491,-0.42077 -16.76191,-1.53094 -2.01523,-0.84202 -5.14075,-2.65727 -6.94559,-4.03389 -1.80484,-1.37662 -4.50921,-4.59782 -6.00971,-7.15822 -2.22216,-3.79184 -2.72758,-5.87218 -2.72495,-11.21612 0.003,-5.35189 0.53971,-7.54512 2.91471,-11.90252 1.60132,-2.93792 3.97986,-6.18206 5.28565,-7.2092 1.30579,-1.02713 4.91854,-2.81949 8.02832,-3.98301 3.10978,-1.16351 5.90734,-2.52515 6.21679,-3.02585 0.30945,-0.50071 0.19815,-4.70757 -0.24733,-9.34859 -0.44548,-4.64101 -1.94756,-12.41024 -3.33796,-17.26493 -1.3904,-4.8547 -4.62342,-13.0801 -7.1845,-18.27867 -3.39266,-6.88654 -6.50235,-11.39512 -11.45731,-16.61141 -4.92208,-5.18167 -8.47247,-7.90967 -12.85212,-9.87514 -3.32824,-1.49362 -8.44373,-2.9626 -11.36777,-3.26438 -3.60983,-0.37257 -6.94529,-0.008 -10.39067,1.13668 -3.26265,1.08368 -6.30303,3.04552 -8.51607,5.49508 -1.893,2.09533 -4.00147,5.50546 -4.6855,7.57807 -0.72763,2.20474 -1.00659,5.88966 -0.6723,8.88071 0.38162,3.41462 2.36598,8.59919 5.97551,15.61233 2.97229,5.775 6.2291,12.975 7.23737,16 1.01826,3.05496 1.84217,8.42029 1.85336,12.06905 0.0158,5.14947 -0.5686,7.77236 -2.7042,12.13736 -1.5865,3.24269 -7.33038,10.68579 -13.75273,17.82122 -6.06563,6.73909 -11.68233,13.51743 -12.48156,15.06297 -0.79923,1.54554 -1.45315,3.2881 -1.45315,3.87235 0,0.58425 2.49284,2.16472 5.53964,3.51216 4.73068,2.09213 5.83261,3.11218 7.54576,6.98504 1.46092,3.30267 1.81882,5.53347 1.31695,8.20866 -0.37903,2.02043 -2.08712,5.18709 -3.79575,7.03702 -2.04229,2.21117 -4.37274,3.56473 -6.80231,3.95087 -2.03265,0.32305 -4.83689,0.30095 -6.23166,-0.0491 -1.39477,-0.35006 -4.09173,-2.00247 -5.99323,-3.67201 -1.90151,-1.66955 -3.96966,-4.58805 -4.5959,-6.48555 -0.62623,-1.89751 -1.44121,-3.44502 -1.81105,-3.4389 -0.36985,0.006 -1.57245,2.36861 -2.67245,5.25 -1.53036,4.00868 -2.82187,5.66326 -5.5,7.04615 -2.82665,1.45958 -5.32765,1.74239 -13,1.47 -5.225,-0.1855 -10.12475,-0.7263 -10.88833,-1.20178 -1.08406,-0.67504 -1.2601,-2.68165 -0.80323,-9.1555 0.38359,-5.43564 1.29559,-9.68367 2.64814,-12.33488 1.13467,-2.22414 3.38628,-4.72817 5.00357,-5.5645 1.61729,-0.83634 4.20038,-1.5275 5.74019,-1.53592 1.53981,-0.008 3.35573,-0.36851 4.03537,-0.80019 0.86202,-0.54752 -0.0953,-1.89742 -3.16559,-4.4639 -2.5694,-2.14775 -4.89388,-5.17156 -5.58477,-7.26499 -0.65091,-1.97228 -0.89226,-5.13827 -0.53633,-7.03554 0.36871,-1.96541 2.10406,-4.90648 4.0334,-6.83583 2.17,-2.16999 4.77288,-3.62053 7.24679,-4.03849 2.14418,-0.36226 5.17434,-0.15569 6.81566,0.46463 1.62532,0.61427 4.17462,2.28017 5.66511,3.70199 1.78687,1.70455 3.0884,4.40795 3.8209,7.93638 1.04091,5.01404 1.29759,5.35125 4.07326,5.35125 1.62929,0 5.13461,-1.10077 7.7896,-2.44615 2.65499,-1.34539 7.31233,-4.71737 10.34964,-7.49331 3.03731,-2.77593 6.25008,-6.58067 7.1395,-8.45497 0.92895,-1.95762 1.60777,-5.89682 1.59516,-9.2567 -0.0133,-3.53463 -0.76155,-7.47749 -1.89116,-9.96496 -1.02805,-2.26385 -3.40378,-5.28658 -5.2794,-6.71718 -1.87562,-1.4306 -5.8621,-3.68155 -8.85885,-5.0021 -2.99675,-1.32055 -14.42854,-4.9415 -25.40398,-8.04656 -11.65865,-3.29833 -23.4733,-7.34833 -28.41677,-9.74111 -6.84748,-3.31437 -10.35553,-5.93352 -18.3916,-13.73138 -8.69844,-8.44059 -10.46436,-10.75277 -14.23679,-18.6407 C 577.13085,358.5522 574.59264,352.025 573.85903,349 c -0.73362,-3.025 -1.30489,-10.225 -1.26951,-16 0.0412,-6.72397 0.6991,-12.83754 1.82942,-17 0.97079,-3.575 3.30362,-9.65536 5.18406,-13.51191 1.88044,-3.85654 5.45882,-9.61087 7.95197,-12.7874 2.49314,-3.17652 7.50657,-7.95902 11.14096,-10.62777 3.63439,-2.66876 9.8021,-6.42599 13.70602,-8.3494 3.90393,-1.92341 10.64851,-4.28223 14.98795,-5.24182 6.09318,-1.3474 10.53382,-1.61961 19.5,-1.19533 7.29853,0.34535 14.32886,1.33121 18.9311,2.65468 4.02655,1.15793 10.55155,3.73214 14.5,5.72049 3.94845,1.98834 10.554,5.88462 14.679,8.6584 4.125,2.77377 10.23288,7.77401 13.57307,11.11164 3.34019,3.33763 8.55402,9.44342 11.5863,13.56842 3.03227,4.125 7.90414,11.4846 10.82638,16.35466 2.92223,4.87007 7.50795,14.03367 10.19048,20.36356 2.68253,6.32989 6.49851,16.97029 8.47995,23.64534 1.98144,6.67504 4.65381,18.11204 5.93861,25.41554 1.28479,7.30351 2.8226,19.22851 3.41734,26.5 0.59475,7.2715 1.29389,14.2334 1.55366,15.4709 0.40349,1.92213 1.11546,2.25 4.88587,2.25 3.52151,0 4.54067,-0.40048 5.04244,-1.98141 0.34588,-1.08978 0.13765,-10.20228 -0.46275,-20.25 C 769.43096,403.72086 768.0291,388.975 766.91611,381 c -1.11299,-7.975 -3.62541,-21.68532 -5.58315,-30.46738 -1.95774,-8.78206 -5.32539,-21.08856 -7.48365,-27.34777 -2.15827,-6.25922 -6.62987,-16.808 -9.93688,-23.44175 -3.30701,-6.63375 -8.21885,-15.2526 -10.9152,-19.15301 -2.69635,-3.9004 -6.61128,-8.74844 -8.69984,-10.77342 -2.08856,-2.02497 -6.24662,-4.90436 -9.24012,-6.39864 -4.37918,-2.18599 -7.26144,-2.81202 -14.75,-3.20372 C 693.88246,259.87826 691,259.34725 691,258.49974 c 0,-0.67525 1.72667,-2.42432 3.83704,-3.88681 2.11037,-1.46249 5.3699,-3.09869 7.2434,-3.636 1.87349,-0.53731 4.68433,-0.97693 6.24629,-0.97693 1.56197,0 2.68994,-0.4286 2.5066,-0.95244 -0.18333,-0.52384 -2.95173,-4.09059 -6.152,-7.92611 -3.44303,-4.12648 -7.07638,-7.41212 -8.89922,-8.04756 C 694.0878,232.48325 691.67973,232 690.43083,232 c -1.24891,0 -7.14425,1.17593 -13.10078,2.61319 -8.26775,1.99492 -12.21249,2.46943 -16.67318,2.00559 -3.21372,-0.33417 -7.82622,-1.4848 -10.25,-2.55695 C 647.98309,232.98968 646,231.73861 646,231.28167 c 0,-0.45693 3.2625,-1.35047 7.25,-1.98563 3.9875,-0.63517 11.00632,-2.7633 15.59739,-4.7292 4.59106,-1.96589 10.10356,-3.85517 12.25,-4.1984 2.14643,-0.34323 3.90261,-1.16486 3.90261,-1.82584 0,-0.66097 -2.5875,-4.06173 -5.75,-7.55724 -3.1625,-3.49551 -8.39109,-8.30021 -11.61909,-10.6771 -3.228,-2.3769 -8.23461,-5.00931 -11.12579,-5.8498 l -5.2567,-1.52816 -0.65302,-4.92266 c -0.41227,-3.10785 -1.59683,-6.04432 -3.2131,-7.96515 C 645.26477,177.52594 644.08299,177 640.54597,177 c -2.77311,0 -5.17698,0.70851 -6.83872,2.01564 -1.40936,1.1086 -3.08783,3.6075 -3.72994,5.5531 -0.64211,1.94561 -0.89803,4.611 -0.56872,5.92308 0.32931,1.31209 0.16691,2.6525 -0.3609,2.97871 -0.52781,0.3262 -2.44196,-0.0408 -4.25367,-0.81556 -1.81171,-0.77475 -4.59556,-2.79303 -6.18632,-4.48506 -2.12671,-2.26208 -3.01057,-4.34611 -3.33912,-7.87316 -0.36035,-3.86856 0.0118,-5.47401 1.92326,-8.29675 1.30355,-1.925 4.04244,-4.4 6.08642,-5.5 2.04399,-1.1 3.71755,-2.3026 3.71904,-2.67245 0.001,-0.36984 -1.49807,-1.16775 -3.33235,-1.77311 -1.83428,-0.60537 -4.48,-2.32777 -5.87938,-3.82756 -1.39938,-1.49978 -3.09673,-4.45447 -3.7719,-6.56597 -0.80972,-2.53229 -0.98593,-6.10643 -0.51767,-10.5 0.39045,-3.6635 1.15259,-7.49173 1.69365,-8.50717 0.86584,-1.62496 2.02217,-1.80172 9.64705,-1.47462 5.69945,0.2445 9.93111,0.99347 12.3691,2.18923 2.5001,1.22622 4.37088,3.19147 5.75,6.04034 1.12431,2.32252 2.0442,5.20568 2.0442,6.40703 0,1.20136 0.41968,2.18428 0.93261,2.18428 0.51294,0 1.20947,-0.87229 1.54784,-1.93841 0.33838,-1.06613 2.15908,-3.29393 4.04601,-4.95068 1.88693,-1.65674 5.0006,-3.30676 6.91928,-3.66671 2.5526,-0.47887 4.69447,-0.0706 7.98367,1.52163 2.52958,1.22455 5.38619,3.61778 6.53288,5.47316 1.12074,1.81339 2.03771,4.53898 2.03771,6.05685 0,2.66 -0.14472,2.73663 -4.00277,2.11971 -2.56993,-0.41095 -5.23089,-0.12694 -7.43359,0.79341 -1.9186,0.80165 -4.12124,2.76864 -4.99722,4.4626 -0.86153,1.66602 -1.56642,4.57661 -1.56642,6.468 0,1.89138 0.7875,4.39633 1.75,5.56657 0.9625,1.17023 4,2.97347 6.75,4.00719 4.98975,1.87566 5.00369,1.89356 6.8022,8.73309 0.9912,3.76948 2.7912,8.5123 4,10.5396 1.20879,2.02731 5.28563,7.11054 9.05964,11.29606 3.77401,4.18552 7.31317,7.45959 7.86481,7.27571 0.55164,-0.18388 1.82598,-2.50243 2.83186,-5.15233 1.00589,-2.6499 4.09979,-8.27701 6.87534,-12.5047 2.77555,-4.22768 5.76819,-9.80485 6.65031,-12.39372 0.88211,-2.58887 1.96752,-4.70703 2.41202,-4.70703 0.44449,0 1.30219,1.41715 1.90599,3.14922 0.60381,1.73208 1.09783,5.82162 1.09783,9.08789 0,4.70622 -0.95567,8.35494 -4.60502,17.58189 -3.76151,9.5105 -4.52403,12.4862 -4.16282,16.24528 0.28981,3.01621 1.58205,6.29638 3.74999,9.51889 1.81928,2.70426 4.68083,6.37933 6.35898,8.16683 1.67816,1.7875 3.39187,3.25 3.80824,3.25 0.41637,0 1.70008,-2.13189 2.85268,-4.73754 1.1526,-2.60565 3.08616,-5.79841 4.2968,-7.09502 1.21063,-1.29661 3.4163,-2.98971 4.90149,-3.76245 1.48519,-0.77275 3.17269,-1.40499 3.75,-1.40499 0.57731,0 1.04966,0.6178 1.04966,1.37288 0,0.75509 -0.88703,3.37816 -1.97117,5.82904 -1.08415,2.45089 -2.26549,6.96033 -2.62521,10.02097 -0.38587,3.28318 -0.16008,7.62382 0.55069,10.58666 0.6626,2.76201 4.59165,10.79075 8.73122,17.84163 4.13958,7.05088 9.04962,15.84429 10.9112,19.54091 1.86159,3.69662 5.13555,11.12815 7.27546,16.51452 2.13991,5.38636 5.28,14.74339 6.97797,20.79339 1.69798,6.05 3.97264,14.83196 5.05482,19.51547 1.08218,4.68351 2.86588,13.90851 3.96379,20.5 1.09792,6.59149 2.46726,16.70953 3.04299,22.48453 0.57574,5.775 1.30851,17.025 1.62838,25 0.31988,7.975 0.79409,15.53765 1.0538,16.80588 0.41623,2.03248 0.9722,2.26962 4.68914,2 L 790.5,435.5 l -0.11265,-39 c -0.0962,-33.29761 -0.43168,-41.69403 -2.29463,-57.42512 -1.2001,-10.13381 -3.30893,-24.53381 -4.68628,-32 C 782.02908,299.6087 779.76999,289 778.38624,283.5 c -1.38375,-5.5 -4.34383,-15.85 -6.57795,-23 -2.23413,-7.15 -7.42495,-21.55 -11.53516,-32 -4.11021,-10.45 -11.73571,-27.94297 -16.94556,-38.87328 -5.222,-10.9558 -10.33738,-23.25511 -11.40001,-27.40996 -1.36588,-5.34053 -1.92325,-10.91397 -1.91278,-19.12672 0.009,-6.84968 0.6399,-14.24235 1.54318,-18.07487 0.84061,-3.56666 3.06805,-9.64166 4.94986,-13.5 1.88181,-3.85835 5.70873,-10.03332 8.50426,-13.722165 2.79554,-3.688848 8.32922,-9.313848 12.29708,-12.5 3.96786,-3.186153 12.29766,-8.697212 18.51066,-12.246799 6.21299,-3.549587 13.03066,-7.93829 15.15036,-9.752674 2.1197,-1.814384 4.83249,-5.320182 6.02843,-7.790663 1.19594,-2.470481 2.5799,-4.742375 3.07547,-5.048655 0.49557,-0.306279 1.63018,1.265442 2.52136,3.492713 0.90382,2.258869 3.9295,6.150792 6.84236,8.801328 2.87213,2.61346 9.23608,6.964575 14.14212,9.669144 4.90604,2.70457 11.95498,7.132736 15.6643,9.840369 3.70931,2.707634 9.33431,7.75229 12.5,11.210349 3.16568,3.458059 7.45479,9.154893 9.53137,12.659633 2.07657,3.50474 4.96634,9.97225 6.42171,14.37225 2.33466,7.05834 2.65379,9.6479 2.71125,22 0.05,10.75492 -0.353,15.39075 -1.73875,20 -0.99212,3.3 -6.24097,15.47432 -11.66411,27.05405 -5.42314,11.57972 -12.61562,27.95515 -15.98329,36.38984 -3.36767,8.43469 -8.32743,22.13537 -11.0217,30.44595 -2.69426,8.31059 -6.23508,20.51016 -7.86849,27.11016 -1.63341,6.6 -3.8862,16.725 -5.00619,22.5 -1.11999,5.775 -2.72751,15.225 -3.57226,21 -0.84475,5.775 -1.97151,15 -2.50391,20.5 -0.5324,5.5 -1.46596,21.025 -2.07457,34.5 -0.60861,13.475 -0.96453,31.025 -0.79092,39 L 808.5,435.5 h 5 5 l 0.7545,-11 c 0.41497,-6.05 1.43329,-19.325 2.26293,-29.5 0.82963,-10.175 2.57943,-24.35 3.88843,-31.5 1.30901,-7.15 3.58194,-17.5 5.05097,-23 1.46903,-5.5 4.04679,-14.275 5.72836,-19.5 1.68156,-5.225 4.39947,-12.65 6.03978,-16.5 1.6403,-3.85 4.79194,-10.6 7.00364,-15 2.21169,-4.4 5.98787,-11.04818 8.39151,-14.77373 2.40363,-3.72555 5.50008,-9.00337 6.881,-11.72848 1.38092,-2.72511 2.9859,-7.17025 3.56663,-9.87809 0.75911,-3.53962 0.7351,-6.69222 -0.0854,-11.21714 -0.62771,-3.4616 -2.00552,-7.98786 -3.06181,-10.05835 C 863.86424,229.77372 863,227.83675 863,227.53984 863,227.24293 863.98273,227 865.18384,227 c 1.30464,0 4.08032,1.96756 6.89449,4.88722 2.59086,2.68797 5.29853,6.51297 6.01705,8.5 0.71852,1.98703 1.85454,3.61278 2.52449,3.61278 0.66995,0 3.28391,-2.5875 5.80879,-5.75 2.52489,-3.1625 5.53954,-7.68947 6.69924,-10.05994 1.60503,-3.28074 1.95153,-5.29188 1.45101,-8.42196 -0.36165,-2.26162 -1.95037,-7.07214 -3.53049,-10.69006 -1.58013,-3.61792 -3.62636,-9.18958 -4.54718,-12.38147 -1.18601,-4.11112 -1.46962,-7.31877 -0.9726,-11 0.3859,-2.85811 1.11565,-5.98407 1.62168,-6.94657 0.50603,-0.9625 1.30413,-1.75 1.77357,-1.75 0.46944,0 1.13795,1.51608 1.48557,3.36906 0.34762,1.85299 2.9599,7.14049 5.80507,11.75 2.84517,4.60952 6.46971,11.03333 8.05453,14.27515 l 2.88149,5.89421 5.987,-5.89421 c 3.29286,-3.24182 7.7277,-8.48615 9.85522,-11.65407 2.32067,-3.45553 4.36219,-8.0563 5.10294,-11.5 0.6791,-3.15708 1.60504,-6.22981 2.05763,-6.82829 0.4526,-0.59849 2.59509,-1.61912 4.76109,-2.26807 2.166,-0.64895 5.09634,-2.5563 6.51187,-4.23857 1.41554,-1.68226 2.5737,-4.19363 2.5737,-5.58081 0,-1.38718 -0.70977,-4.01788 -1.57727,-5.846 -0.93734,-1.97529 -3.01769,-4.00737 -5.1275,-5.00855 -2.40789,-1.14261 -4.77685,-1.48855 -7.36237,-1.0751 -2.13982,0.34217 -4.08073,0.175 -4.4244,-0.38106 -0.33673,-0.54485 0.28049,-3.00882 1.37162,-5.47549 1.20021,-2.71327 3.27858,-5.27222 5.26151,-6.47811 1.80271,-1.09629 4.51112,-2.26418 6.01869,-2.59529 1.7114,-0.37589 4.38982,0.1273 7.13031,1.33954 2.7691,1.22491 5.21811,3.28269 6.63475,5.57485 1.23501,1.9983 2.59794,3.41544 3.02872,3.1492 0.43078,-0.26623 1.06458,-2.24349 1.40844,-4.39389 0.36,-2.25132 1.81882,-5.1876 3.43906,-6.92207 1.54761,-1.65673 4.58788,-3.50477 6.75614,-4.10675 2.16827,-0.60199 6.9247,-1.09704 10.56986,-1.1001 4.23618,-0.004 7.01823,0.46516 7.7103,1.29906 0.59552,0.71755 1.38671,4.94928 1.75821,9.40384 0.59259,7.10567 0.40983,8.64789 -1.48983,12.57206 -1.57761,3.25891 -3.37857,5.11651 -6.63576,6.84444 -2.45876,1.30437 -4.47048,2.67953 -4.47048,3.05592 0,0.37638 0.865,0.95886 1.92221,1.29441 1.05722,0.33555 3.53222,2.39217 5.5,4.57027 3.04869,3.37453 3.57682,4.66221 3.5712,8.7073 -0.004,2.96304 -0.7149,5.82149 -1.8913,7.60582 -1.03659,1.57229 -3.17112,3.70682 -4.74341,4.74341 -1.57228,1.03659 -3.84299,1.88768 -5.04602,1.8913 -1.90448,0.006 -2.18,-0.5238 -2.13071,-4.09515 0.0352,-2.55001 -0.67498,-5.10361 -1.87722,-6.75 -1.0636,-1.45654 -3.5361,-3.44598 -5.49444,-4.42097 -2.86749,-1.42763 -4.11991,-1.56008 -6.43364,-0.6804 -1.58015,0.60077 -3.65253,1.79777 -4.60528,2.66 -0.95275,0.86223 -1.992,3.19341 -2.30945,5.1804 -0.31744,1.98699 -0.78077,4.60908 -1.02961,5.82687 -0.33065,1.6181 -1.59386,2.51575 -4.69239,3.33442 -2.33197,0.61613 -6.28636,2.42072 -8.78753,4.01019 -2.50118,1.58948 -8.30288,6.73728 -12.89268,11.43958 -4.5898,4.7023 -8.04509,8.84962 -7.67843,9.21628 0.36666,0.36666 3.91836,1.65672 7.89268,2.86679 3.97431,1.21007 10.08716,3.41181 13.58411,4.89276 3.49695,1.48095 8.80041,2.94471 11.78548,3.25279 3.30866,0.34149 5.28778,0.99209 5.06975,1.66659 -0.19669,0.60854 -2.12516,1.9724 -4.28547,3.0308 -2.9834,1.46165 -5.97167,1.90932 -12.42785,1.86179 -5.61529,-0.0413 -10.87456,-0.77927 -15.49682,-2.17436 C 917.65493,232.95031 912.88458,232 910.90241,232 c -1.98218,0 -4.99056,0.48337 -6.68529,1.07416 -1.88617,0.65752 -5.24095,3.76592 -8.64922,8.01401 -3.06235,3.81693 -5.5679,7.32503 -5.5679,7.79579 0,0.47077 2.04377,1.0863 4.5417,1.36785 2.50426,0.28227 6.65111,1.81606 9.24381,3.419 2.58616,1.5989 4.85039,3.67706 5.03162,4.61814 0.28523,1.48109 -0.59671,1.71105 -6.5623,1.71105 -3.79051,0 -9.17893,0.6792 -11.97428,1.50932 -2.79534,0.83013 -7.25348,2.96763 -9.90696,4.75 -2.65348,1.78238 -7.43569,6.61568 -10.62713,10.74068 -3.19143,4.125 -8.94212,13.8 -12.77931,21.5 -3.83718,7.7 -8.95658,20.075 -11.37644,27.5 -2.41986,7.425 -5.55518,18.675 -6.96737,25 -1.4122,6.325 -3.49254,17.79635 -4.62297,25.49188 -1.13044,7.69554 -2.51887,20.74554 -3.08541,29 -0.56654,8.25447 -0.89167,18.38312 -0.72252,22.50812 l 0.30756,7.5 3.88178,0.31822 c 2.13498,0.17502 4.3112,-0.1112 4.83605,-0.63605 0.52485,-0.52485 1.56371,-7.86805 2.30857,-16.31822 0.74486,-8.45017 1.87653,-18.73895 2.51482,-22.86395 0.63829,-4.125 2.49428,-13.10997 4.12443,-19.96661 1.63014,-6.85664 4.56688,-16.75664 6.52607,-22 1.95919,-5.24336 6.15989,-14.72389 9.33488,-21.06785 3.175,-6.34395 8.53085,-15.6579 11.9019,-20.69768 3.37105,-5.03977 9.47369,-12.71845 13.56142,-17.06373 4.08773,-4.34529 10.83215,-10.25088 14.9876,-13.12354 4.15545,-2.87266 11.71046,-7.16763 16.78892,-9.54439 5.07846,-2.37675 12.15856,-5.06019 15.73356,-5.9632 3.575,-0.903 11,-1.91188 16.5,-2.24195 6.25971,-0.37567 12.78951,-0.12886 17.45799,0.65984 5.37141,0.90746 10.43024,2.77144 18.08155,6.66232 5.98364,3.04283 13.11816,7.62576 16.33526,10.49307 3.1414,2.79989 7.5434,7.78815 9.7823,11.08501 2.2388,3.29687 5.3322,8.77664 6.8741,12.17728 1.5419,3.40064 3.5157,9.63092 4.3862,13.84505 0.8704,4.21413 1.5826,10.62501 1.5826,14.24638 0,3.62137 -0.7042,9.99352 -1.5649,14.16032 -0.8606,4.1668 -2.6599,10.05214 -3.9983,13.07853 -1.3384,3.0264 -4.432,8.30315 -6.8746,11.72612 -2.4425,3.42297 -7.0558,8.61357 -10.2516,11.53467 -3.1958,2.92109 -8.0606,6.79894 -10.8106,8.61743 -2.75,1.81849 -8.07848,4.46014 -11.84107,5.87033 -3.76258,1.41018 -15.46258,5.06993 -26,8.13276 -10.53741,3.06284 -21.55498,6.69983 -24.48349,8.08221 -2.92851,1.38238 -6.77073,3.95958 -8.53826,5.72712 -1.76754,1.76753 -3.75898,5.03369 -4.42544,7.25812 -0.66646,2.22444 -1.20923,5.56722 -1.20616,7.42841 0.003,1.86119 0.49602,5.15043 1.09544,7.30943 0.71495,2.57504 3.03511,5.86519 6.74443,9.56403 3.11,3.10122 8.20292,6.88094 11.3176,8.39936 3.27473,1.59645 6.85591,2.6238 8.49145,2.43597 1.9202,-0.22051 2.92573,-0.96701 3.13153,-2.32481 0.16671,-1.1 0.98843,-3.89457 1.82604,-6.21015 0.98853,-2.73284 2.68105,-4.92592 4.82345,-6.25 2.01164,-1.24326 5.01177,-2.03839 7.68251,-2.03611 2.5802,0.002 5.69833,0.80637 7.58342,1.95578 1.7608,1.07362 3.8983,3.29959 4.75,4.9466 0.8517,1.64701 1.54855,4.4114 1.54855,6.14309 0,1.73169 -0.74533,4.7192 -1.65629,6.6389 -0.91096,1.9197 -3.40638,4.64853 -5.54539,6.06405 -2.80743,1.85787 -3.52882,2.80225 -2.59372,3.39545 0.71247,0.45197 2.6454,0.83034 4.2954,0.84082 1.65,0.0105 4.44065,0.89746 6.20145,1.97109 1.7608,1.07362 3.96037,3.41961 4.88793,5.21331 1.0277,1.98736 1.87897,6.63748 2.17928,11.90441 0.35311,6.19301 0.14592,8.85752 -0.73087,9.3994 -0.67302,0.41596 -4.93414,0.98777 -9.46916,1.2707 -5.02492,0.31349 -9.6284,0.058 -11.78614,-0.65411 -1.94736,-0.64269 -4.31285,-2.02179 -5.25665,-3.06468 -0.9438,-1.04289 -2.30096,-3.5977 -3.01591,-5.67735 -0.71496,-2.07966 -1.75618,-3.93328 -2.31383,-4.11917 -0.55766,-0.18588 -1.31102,1.01473 -1.67415,2.66804 -0.36313,1.65331 -1.60467,4.20667 -2.75899,5.67415 -1.15432,1.46748 -3.58375,3.28861 -5.39874,4.04696 -1.81499,0.75835 -4.45736,1.37882 -5.87194,1.37882 -1.41458,0 -4.34476,-0.90442 -6.51151,-2.00981 -2.16676,-1.1054 -4.62383,-3.33305 -5.46016,-4.95034 C 923.68427,497.42256 923,494.11266 923,491.68452 c 0,-2.96978 0.68692,-5.28807 2.09865,-7.08281 1.15426,-1.4674 4.30426,-3.78567 7,-5.1517 3.19796,-1.62053 4.90135,-3.12442 4.90135,-4.32731 0,-1.01398 -1.16143,-3.55507 -2.58096,-5.64687 -1.41953,-2.09179 -6.38733,-7.92632 -11.03955,-12.96561 -4.65223,-5.0393 -9.63195,-10.88911 -11.06605,-12.99958 -1.43411,-2.11048 -3.21631,-5.86026 -3.96045,-8.33286 -0.74415,-2.47261 -1.35048,-6.33662 -1.34741,-8.58671 0.003,-2.25009 0.48353,-5.89107 1.06769,-8.09107 0.58417,-2.2 4.03166,-10.27726 7.66109,-17.94946 5.67482,-11.9959 6.59781,-14.72678 6.59065,-19.5 -0.006,-3.69845 -0.72543,-6.94934 -2.15743,-9.74261 -1.18202,-2.30564 -3.61577,-5.28744 -5.40835,-6.62623 -1.79258,-1.33879 -5.01183,-2.99625 -7.1539,-3.68323 -2.29118,-0.73481 -6.45986,-1.04316 -10.12518,-0.74894 -4.45161,0.35733 -8.00102,1.4438 -12.4317,3.80533 -3.85091,2.05252 -8.4416,5.75021 -12.11246,9.75631 -4.02686,4.3946 -7.48236,9.6768 -10.83972,16.56996 -2.71064,5.56538 -5.8782,13.24261 -7.03902,17.06052 -1.16081,3.81791 -2.629,11.04629 -3.26263,16.06307 -0.63363,5.01679 -0.85684,9.89075 -0.49602,10.83103 0.36082,0.94029 1.45374,1.95332 2.42872,2.25118 0.97497,0.29786 4.09263,1.6119 6.92813,2.92008 2.88088,1.32912 6.35185,3.94707 7.86714,5.93372 1.49143,1.95537 3.31423,5.24362 4.05066,7.30724 0.73643,2.06362 1.35872,5.49982 1.38286,7.63601 0.0241,2.13619 -0.47836,5.6271 -1.11667,7.75758 -0.6383,2.13048 -2.75078,5.73142 -4.69439,8.00209 -1.94361,2.27067 -5.80886,5.18786 -8.58944,6.48265 -4.52227,2.10581 -6.48599,2.35519 -18.61448,2.36393 -9.70827,0.007 -14.07677,0.38847 -15.38251,1.34325 -1.5793,1.15481 -1.67137,1.79484 -0.6872,4.77692 0.62504,1.8939 2.45076,5.03795 4.05715,6.98677 1.60639,1.94883 5.31712,5.38696 8.24607,7.64029 2.92895,2.25333 9.37536,6.12598 14.32536,8.60589 4.95,2.47991 18.45,8.40451 30,13.16579 11.55,4.76127 25.1652,10.68582 30.256,13.16567 6.52633,3.17913 10.98001,6.20628 15.10193,10.26469 3.33346,3.28211 7.09147,8.29258 8.744,11.65819 2.41517,4.91882 2.89807,7.15202 2.89807,13.40231 0,4.125 -0.36567,8.3977 -0.81259,9.49489 -0.6862,1.68461 -1.4153,0.8495 -4.68757,-5.36909 -2.13124,-4.0502 -4.89973,-8.45479 -6.15219,-9.78797 -1.25247,-1.33319 -5.03282,-3.78056 -8.40078,-5.4386 -5.75426,-2.83282 -7.13419,-3.06601 -22.88075,-3.86668 -15.91277,-0.80911 -17.07802,-1.01 -23.12445,-3.98665 -4.06083,-1.99914 -9.73142,-6.29028 -15.65448,-11.84629 -5.10795,-4.79143 -11.34689,-10.38692 -13.86429,-12.43443 -2.51741,-2.04751 -6.21546,-4.4073 -8.21788,-5.24397 C 832.70259,526.68455 829.28431,526 827.10884,526 c -2.75548,0 -4.85274,0.75507 -6.91344,2.48904 -1.62693,1.36897 -3.19305,3.71834 -3.48027,5.22083 -0.28722,1.50249 0.15963,4.4359 0.993,6.5187 0.83337,2.0828 3.71813,5.76751 6.41058,8.18825 2.69245,2.42074 8.37969,6.42422 12.63832,8.89661 4.25864,2.47239 13.14297,6.61335 19.74297,9.20213 6.6,2.58879 14.25,5.84109 17,7.22735 2.75,1.38625 6.93616,3.90448 9.30258,5.59605 2.36641,1.69158 5.85391,5.55574 7.75,8.58703 2.78622,4.45437 3.44742,6.51304 3.44742,10.73371 0,2.87224 -0.43084,5.48854 -0.95741,5.81398 -0.52658,0.32544 -1.61318,-0.6605 -2.41468,-2.19098 -0.8015,-1.53049 -2.95817,-4.22239 -4.79259,-5.98202 -1.83443,-1.75962 -5.01897,-3.90155 -7.07676,-4.75984 -2.05779,-0.85829 -8.88295,-1.97959 -15.16701,-2.49178 -8.87059,-0.72301 -12.50631,-1.47949 -16.25856,-3.3829 -2.65814,-1.3484 -8.52431,-5.8524 -13.03593,-10.00888 -4.51161,-4.15649 -9.55177,-8.25475 -11.20034,-9.10726 C 821.44815,565.69751 818.55707,565 816.6721,565 c -1.88496,0 -3.95122,0.63139 -4.59167,1.40308 -0.64045,0.7717 -1.56166,2.78806 -2.04713,4.48081 -0.52982,1.84739 -0.49748,4.47281 0.0809,6.56754 0.52997,1.9194 3.88875,7.89053 7.46394,13.26919 3.5752,5.37866 7.16699,12.064 7.98176,14.85631 0.99159,3.39833 1.40233,8.63095 1.24227,15.82601 -0.13152,5.912 -0.61452,10.98109 -1.07333,11.26465 -0.45881,0.28356 -3.21785,-0.65065 -6.13119,-2.07601 C 816.6843,629.16621 813.79162,628 813.16946,628 c -0.75596,0 -0.9375,1.41322 -0.54725,4.26035 0.32117,2.34319 0.094,6.07981 -0.5048,8.30361 -0.5988,2.22379 -3.23269,7.59199 -5.85307,11.92933 -2.62039,4.33734 -5.28102,8.04794 -5.91252,8.24578 -0.63149,0.19784 -3.19101,-2.92501 -5.68782,-6.93968 z"/></svg>
